<?xml version="1.0" encoding="UTF-8" standalone="no"?>
<svg
   xmlns:dc="http://purl.org/dc/elements/1.1/"
   xmlns:cc="http://creativecommons.org/ns#"
   xmlns:rdf="http://www.w3.org/1999/02/22-rdf-syntax-ns#"
   xmlns:svg="http://www.w3.org/2000/svg"
   xmlns="http://www.w3.org/2000/svg"
   xml:space="preserve"
   style="enable-background:new 0 0 50 50;"
   viewBox="0 0 50 50"
   y="0px"
   x="0px"
   id="Layer_4"
   version="1.1"><metadata
     id="metadata11"><rdf:RDF><cc:Work
         rdf:about=""><dc:format>image/svg+xml</dc:format><dc:type
           rdf:resource="http://purl.org/dc/dcmitype/StillImage" /></cc:Work></rdf:RDF></metadata><defs
     id="defs9" /><style
     id="style2"
     type="text/css">
	.st0{fill:#04A64B;}
</style><path
     id="path4"
     d="M24.1,26.9c3.9-0.1,11.9-8.2,12.6-13.9c0.4-3.2-1.4-6.3-4.5-7.4c-0.9-0.3-1.9-0.5-2.8-0.5c-2,0-3.9,0.7-5.3,1.9  c-1.4-1.2-3.3-1.9-5.3-1.9c-1,0-1.9,0.2-2.8,0.5c-3.1,1.1-5,4.2-4.6,7.4C12.1,18.7,20.2,26.9,24.1,26.9L24.1,26.9L24.1,26.9z   M23.2,9.4l0.9,1.2L25,9.4c1-1.2,2.6-2,4.4-2c0.7,0,1.4,0.1,2,0.4c2.4,0.9,3.3,3.2,3,5c-0.6,4.6-7.7,11.8-10.4,11.9  c-2.6-0.1-9.8-7.2-10.4-11.9c-0.2-1.8,0.6-4.1,3-5c0.7-0.2,1.3-0.4,2-0.4C20.6,7.4,22.2,8.2,23.2,9.4z M43.2,44.7l5.9-7.3l-5.2-2.2  c0,0-0.1-0.1-0.1-0.1c0-0.1-4.4-5.2-10.2-5.2l-0.2,0c-1.9,0-3.4,0.5-4.8,0.9c-1.1,0.3-2,0.7-3.2,0.8c-1.6,0.2-3.3,0.2-4.9,0.3  c-2.7,0.1-5.5,0.3-7.6,0.7c-1.2,0.3-1.8,1.2-1.6,1.9c0.1,0.7,0.8,1.5,2.4,1.5c0.2,0,8,0,12.8,0.3c1,0.1,2,0.3,2.6,0.4  c0.1,0,0.3,0.1,0.3,0.2c0.1,0.1,0.1,0.2,0.1,0.4c0,0.2-0.2,0.4-0.5,0.4c-0.3,0-0.6,0.1-0.9,0.1c-0.6,0-1-0.1-1.3-0.2  c-0.2-0.1-0.5-0.2-0.8-0.2c-3.6-0.4-12.1-0.4-12.4-0.4c-2.2,0-3.2-1.3-3.4-2.4c-0.2-1.3,0.6-2.7,2.4-3.1c0.3-0.1,0.7-0.1,1.1-0.2  c-0.8-0.6-2-1.4-3.1-2.3l0,0c-0.1-0.1-0.2-0.2-0.4-0.3c-0.7-0.7-2.2-2-3.5-2c-0.2,0-0.4,0-0.6,0.1l-0.1,0l-0.1,0  c-1-0.4-2.2-0.7-3.3-0.7c-1,0-1.7,0.2-1.9,0.7c-0.2,0.4-0.1,1,0.4,1.7c4.5,6.5,16,14.8,19.2,16c0.7,0.3,1.4,0.4,2.2,0.4  c0.8,0,1.5-0.1,2.2-0.4c1.6-0.6,9.3-2,12.1-2c0.1,0,0.1,0,0.2,0c1.4,0,3.1,0.8,4,1.5L43.2,44.7z"
     class="st0" /></svg>