<?xml version="1.0" encoding="utf-8"?>
<svg width="400.000000pt" height="392.000000pt" viewBox="0 0 400.000000 392.000000" preserveAspectRatio="xMidYMid meet" xmlns="http://www.w3.org/2000/svg">
  <g transform="translate(0.000000,392.000000) scale(0.100000,-0.100000)" fill="#000000" stroke="none">
    <path d="M1484 3788 c-66 -79 -83 -171 -38 -207 15 -12 38 -21 51 -21 25 0 73&#10;40 73 61 0 8 8 5 18 -7 22 -23 26 -39 10 -39 -20 0 -59 -111 -65 -186 -3 -38&#10;-7 -69 -8 -69 -2 0 -22 9 -46 19 l-43 20 26 10 c57 22 74 88 37 147 -34 56&#10;-209 132 -209 91 0 -34 23 -135 37 -162 9 -16 29 -42 44 -56 l28 -26 -64 0&#10;c-36 0 -65 2 -65 5 0 3 7 13 16 23 8 9 17 30 19 46 4 40 -49 88 -112 101 -52&#10;11 -113 6 -113 -10 0 -17 42 -93 66 -119 l25 -26 -40 -12 c-40 -11 -121 -90&#10;-121 -116 0 -22 106 -34 152 -16 l24 9 -28 -55 c-15 -31 -26 -59 -23 -63 8&#10;-13 123 -1 158 16 51 26 67 45 67 79 0 50 -29 80 -76 77 -21 -2 -44 -8 -51&#10;-14 -10 -8 -13 -4 -13 17 0 16 -7 37 -17 47 -21 23 -6 23 32 -1 17 -10 56 -21&#10;85 -24 85 -9 146 -35 202 -86 l51 -47 -27 -17 c-26 -17 -26 -17 -26 7 0 39&#10;-47 76 -117 91 -30 6 -33 4 -33 -16 0 -36 38 -105 64 -117 13 -6 34 -8 47 -5&#10;15 4 20 3 15 -5 -4 -7 -18 -12 -31 -12 -48 0 -72 -79 -41 -139 24 -46 87 -64&#10;141 -39 76 35 72 178 -6 178 -38 0 -37 15 2 29 18 6 34 11 36 11 8 0 43 -89&#10;53 -136 8 -39 7 -64 -4 -114 -9 -36 -16 -91 -16 -123 l0 -57 -78 54 c-73 51&#10;-204 121 -271 144 l-30 11 38 38 c36 36 61 91 61 136 0 15 -5 17 -37 11 -56&#10;-10 -95 -29 -122 -58 -19 -20 -23 -33 -19 -64 l6 -39 -75 17 c-69 16 -103 30&#10;-74 30 26 0 61 49 61 84 0 64 -95 143 -195 162 l-38 7 7 -58 6 -58 -29 32&#10;c-31 34 -103 70 -137 71 -20 0 -21 -4 -16 -47 9 -92 55 -153 113 -153 43 0 69&#10;26 69 70 0 20 4 17 21 -20 11 -25 30 -56 42 -69 l22 -24 -40 7 c-22 3 -79 9&#10;-127 12 -64 5 -85 10 -81 20 8 23 -18 55 -60 75 -82 37 -107 18 -71 -54 26&#10;-50 45 -67 78 -68 l31 -1 -30 -9 c-40 -12 -55 -35 -55 -85 0 -78 73 -130 142&#10;-101 42 18 58 37 65 81 11 67 -33 121 -82 103 -8 -4 -17 -2 -20 3 -6 9 7 13&#10;47 13 19 0 199 -43 211 -50 14 -8 -12 -30 -42 -36 -52 -11 -81 -46 -83 -99&#10;l-2 -48 -38 0 c-27 0 -40 -6 -48 -19 -15 -29 -12 -103 5 -127 35 -51 122 -55&#10;166 -8 18 20 24 37 24 73 0 54 -17 81 -51 81 -12 0 -26 5 -29 10 -4 6 8 10 29&#10;10 40 0 69 30 88 91 17 58 28 63 92 43 55 -17 66 -34 21 -34 -38 0 -83 -46&#10;-100 -103 -16 -56 -20 -157 -6 -157 28 0 105 44 145 83 39 37 46 49 46 83 0&#10;22 -7 50 -16 62 -29 42 10 36 118 -16 193 -93 360 -238 427 -371 l20 -38 -66&#10;35 c-36 19 -91 43 -122 53 -31 9 -48 18 -39 18 28 2 48 30 48 71 0 31 -6 44&#10;-35 69 -38 33 -96 61 -126 61 -24 0 -25 -27 -3 -100 10 -32 28 -65 46 -82 l30&#10;-28 -57 0 c-57 0 -58 1 -41 19 24 27 17 70 -16 94 -31 23 -128 36 -128 18 0&#10;-29 31 -80 64 -107 l36 -30 -41 -11 -40 -10 6 28 c8 36 -26 73 -81 88 -58 16&#10;-74 14 -74 -9 0 -50 61 -120 104 -120 20 -1 19 -2 -4 -15 -38 -22 -60 -19 -60&#10;8 0 33 -19 47 -62 47 -44 0 -118 -34 -118 -53 0 -19 81 -57 123 -57 22 0 37&#10;-6 41 -15 5 -14 11 -13 45 5 22 11 42 20 45 20 3 0 -4 -19 -14 -42 -12 -26&#10;-20 -65 -20 -100 0 -49 3 -58 18 -58 29 0 111 57 130 90 17 31 32 39 32 18 0&#10;-17 49 -78 64 -78 34 0 51 134 20 164 -21 21 -53 20 -78 -3 -21 -19 -21 -19&#10;-55 9 l-33 28 55 7 c62 8 179 -9 217 -31 l25 -14 -30 6 c-16 3 -36 7 -43 10&#10;-23 7 -24 -23 -4 -69 23 -52 61 -82 92 -72 11 4 20 2 20 -4 0 -6 -13 -11 -29&#10;-11 -16 0 -34 -6 -40 -14 -21 -25 -24 -82 -7 -117 9 -18 15 -34 13 -36 -2 -2&#10;-22 3 -44 11 -65 23 -189 39 -253 33 l-60 -5 -47 59 c-95 117 -236 210 -374&#10;246 -38 9 -69 21 -69 25 0 4 10 13 23 19 30 16 37 28 37 69 0 41 -57 145 -79&#10;145 -39 0 -74 -149 -46 -192 16 -24 16 -24 -4 -14 -25 14 -83 85 -106 131 -10&#10;21 -12 30 -4 23 20 -20 83 -16 102 5 21 23 22 68 3 113 -18 44 -54 89 -70 89&#10;-17 0 -45 -63 -53 -118 -5 -34 -8 -41 -13 -27 -9 23 -5 147 5 188 6 20 4 27&#10;-8 27 -19 0 -47 -79 -47 -132 0 -40 -14 -51 -25 -19 -8 26 -74 70 -131 87 -92&#10;28 -98 21 -64 -88 25 -82 70 -128 125 -130 32 -1 43 4 66 31 l27 32 5 -33 c3&#10;-18 9 -45 12 -61 7 -27 7 -27 -21 -12 -35 18 -118 19 -159 1 l-30 -12 55 -56&#10;c60 -59 98 -74 140 -55 14 7 29 25 34 44 l10 31 29 -40 c15 -22 27 -41 25 -43&#10;-2 -1 -46 -8 -98 -14 -52 -7 -99 -16 -105 -22 -15 -15 -25 -11 -25 10 0 35&#10;-12 52 -51 71 -43 23 -99 27 -99 8 1 -23 37 -93 58 -112 15 -13 29 -16 47 -12&#10;14 4 25 2 25 -4 0 -5 -13 -10 -30 -10 -23 0 -33 -7 -45 -30 -8 -16 -15 -38&#10;-15 -48 0 -38 23 -83 48 -96 l27 -14 -41 -11 c-44 -12 -113 -59 -114 -77 0&#10;-14 39 -41 73 -49 l26 -7 -34 -29 c-19 -17 -38 -44 -43 -62 -16 -50 -22 -106&#10;-12 -112 17 -11 104 32 136 68 l34 37 0 -41 c0 -78 78 -122 155 -87 72 33 72&#10;178 0 178 -13 0 -27 5 -30 10 -4 7 3 8 20 4 33 -8 81 33 91 78 7 35 17 28 34&#10;-24 6 -21 15 -38 19 -38 12 0 68 64 85 97 23 45 20 88 -6 113 -12 11 -29 20&#10;-37 21 -48 3 77 28 144 28 121 1 147 -9 232 -96 40 -41 73 -78 73 -82 0 -3&#10;-21 -15 -47 -26 -26 -11 -51 -21 -55 -23 -4 -2 -4 12 -1 31 10 64 -73 130&#10;-200 161 l-29 7 6 -50 c3 -27 12 -67 21 -88 21 -50 73 -103 102 -103 32 0 29&#10;-10 -13 -51 -32 -30 -35 -31 -29 -11 8 28 -16 69 -50 82 -35 13 -119 -15 -162&#10;-54 l-36 -33 38 -23 39 -24 -35 -9 c-19 -5 -38 -12 -42 -17 -13 -12 13 -46 54&#10;-69 44 -25 67 -26 97 -5 12 8 22 10 22 5 0 -6 -4 -11 -9 -11 -19 0 -41 -32&#10;-41 -58 0 -39 33 -87 69 -102 42 -17 104 1 127 36 24 36 21 96 -6 134 -21 29&#10;-27 32 -65 28 l-42 -5 53 48 c29 26 62 53 74 59 19 10 20 9 13 -17 -16 -57 -4&#10;-163 18 -163 20 0 70 42 100 83 38 53 38 91 -1 127 -25 24 -27 28 -12 33 9 3&#10;31 10 48 15 l32 10 -14 -27 c-26 -49 -9 -207 26 -244 12 -14 90 70 112 120 27&#10;61 26 108 -3 139 l-22 24 59 -1 c32 -1 70 -4 84 -8 l25 -7 -22 -8 c-28 -9 -69&#10;-77 -79 -130 l-7 -39 37 5 c20 2 36 2 35 -2 0 -3 -19 -19 -42 -35 -23 -17 -64&#10;-59 -91 -93 l-50 -61 -17 29 c-33 53 -83 64 -154 31 -39 -17 -125 -95 -125&#10;-112 0 -4 25 -16 55 -25 l54 -17 -43 -39 c-24 -21 -52 -57 -62 -80 -9 -24 -31&#10;-52 -48 -63 -38 -25 -63 -68 -72 -123 -6 -37 -4 -42 13 -42 40 0 114 33 138&#10;61 l24 30 6 -28 c11 -50 38 -103 52 -103 17 0 70 82 78 122 7 29 7 29 21 9 8&#10;-11 32 -25 52 -32 80 -24 152 43 136 126 -7 39 -20 53 -61 65 l-28 8 27 1 c14&#10;1 35 4 45 8 10 3 15 3 11 -1 -12 -14 14 -67 39 -77 49 -19 159 0 170 28 13 34&#10;-114 112 -159 97 -22 -7 -22 -9 -2 64 6 22 5 23 -28 18 -46 -7 -69 -16 -92&#10;-35 -19 -15 -19 -15 -5 4 40 58 66 87 98 113 l36 29 1 -37 c2 -44 42 -106 89&#10;-139 17 -11 34 -21 38 -21 10 0 27 71 27 111 0 71 -23 106 -80 122 -15 4 41&#10;37 90 52 22 7 23 6 11 -8 -7 -9 -17 -32 -21 -52 -7 -31 -4 -40 18 -67 33 -39&#10;92 -65 167 -74 l58 -7 -7 38 c-12 60 -41 109 -91 153 l-46 40 62 7 c58 7 62 6&#10;91 -21 17 -16 48 -51 70 -79 38 -46 39 -52 34 -100 -3 -27 -8 -77 -11 -110 -3&#10;-33 -10 -91 -15 -130 -5 -38 -12 -92 -15 -120 -3 -27 -8 -61 -10 -75 -3 -14&#10;-12 -77 -20 -140 -8 -63 -22 -167 -31 -230 -8 -63 -17 -135 -20 -160 -2 -25&#10;-6 -59 -9 -76 -12 -74 -35 -356 -35 -436 l0 -88 201 0 201 0 -6 28 c-25 132&#10;-55 403 -66 588 -14 256 7 471 55 564 24 47 105 128 133 134 34 8 125 -7 176&#10;-29 l38 -16 -33 -17 c-19 -9 -41 -30 -49 -47 -14 -31 -20 -138 -8 -150 11 -12&#10;94 42 119 76 16 24 20 40 16 71 -5 39 -5 39 15 21 64 -58 70 -103 12 -103 -28&#10;0 -38 -6 -54 -32 -34 -57 -38 -168 -5 -168 23 0 99 64 117 99 12 24 14 40 8&#10;57 -5 13 -6 24 -1 24 5 0 14 -20 21 -45 7 -25 16 -45 20 -45 4 0 10 -9 13 -20&#10;4 -17 0 -20 -28 -20 -41 0 -56 -18 -62 -75 -5 -41 -3 -47 30 -80 47 -47 100&#10;-49 146 -6 27 25 31 36 31 78 0 55 -20 83 -58 83 -11 0 -24 5 -27 10 -4 7 2 9&#10;18 5 14 -4 35 -2 46 4 23 13 57 73 62 111 4 22 1 25 -21 22 -50 -6 -90 -24&#10;-110 -49 -14 -18 -21 -21 -24 -12 -18 63 -25 93 -22 96 2 2 16 -1 31 -7 32&#10;-12 120 2 151 24 17 13 16 15 -17 46 -40 38 -87 60 -127 60 -29 0 -62 -26 -62&#10;-48 0 -7 -4 -12 -10 -12 -5 0 -10 4 -10 8 0 5 -18 27 -41 49 -42 42 -121 86&#10;-177 98 -18 4 -29 11 -26 17 6 9 106 58 118 58 3 0 -1 -13 -7 -29 -24 -66 57&#10;-114 154 -91 27 7 52 16 55 22 9 15 -55 78 -100 98 l-39 18 39 10 c21 6 79 15&#10;128 21 86 10 91 10 113 -11 28 -26 23 -36 -9 -14 -33 23 -56 20 -89 -13 -24&#10;-24 -29 -38 -29 -76 0 -64 39 -105 100 -105 57 0 79 14 101 66 22 48 16 74&#10;-22 95 -11 6 -19 13 -16 15 2 2 16 -2 31 -9 37 -20 69 -11 118 33 l42 37 -24&#10;13 c-14 8 -49 14 -78 14 -45 1 -57 -3 -73 -23 -11 -13 -21 -22 -22 -20 -36 50&#10;-37 56 -10 80 29 28 65 94 56 103 -10 9 -84 7 -125 -4 -48 -14 -81 -55 -73&#10;-90 4 -14 11 -26 16 -28 24 -9 5 -22 -31 -22 -22 0 -40 2 -40 5 0 3 10 19 22&#10;36 16 21 23 48 26 94 2 36 1 65 -2 65 -23 0 -109 -55 -130 -83 -31 -40 -33&#10;-70 -7 -96 20 -20 19 -20 -37 -31 -91 -18 -152 -39 -231 -81 l-73 -39 6 35 c7&#10;38 0 113 -14 134 -20 34 -120 -78 -120 -134 0 -36 26 -65 58 -65 12 0 22 -2&#10;22 -3 0 -2 -25 -29 -56 -60 l-57 -57 6 83 c14 194 79 363 181 469 22 23 30 26&#10;58 18 36 -11 64 -32 30 -23 -33 8 -72 -37 -72 -86 0 -77 79 -130 151 -101 58&#10;24 81 129 38 169 l-22 20 31 26 c31 26 68 110 52 120 -11 7 -85 -12 -111 -28&#10;-23 -14 -43 -62 -33 -79 5 -10 4 -11 -7 0 -7 6 -21 12 -31 12 -30 0 -21 16 31&#10;54 63 46 168 96 217 102 l39 5 -32 -17 c-17 -9 -37 -27 -43 -40 -25 -46 -10&#10;-183 24 -229 14 -19 16 -19 56 20 52 51 80 109 80 167 0 38 -5 50 -25 66 -14&#10;11 -25 24 -25 30 0 10 56 22 109 22 l34 0 -34 -23 c-28 -19 -35 -30 -37 -63&#10;-3 -35 2 -46 36 -85 41 -46 107 -87 119 -75 4 4 7 39 7 79 0 75 -18 126 -51&#10;147 -14 9 -10 10 22 6 55 -8 153 -58 194 -99 33 -35 33 -35 12 -46 -18 -10&#10;-21 -9 -21 7 0 31 -47 70 -98 81 -26 5 -48 8 -51 6 -2 -2 0 -21 4 -41 8 -43&#10;67 -110 87 -99 7 4 -2 -5 -19 -20 -28 -23 -33 -33 -33 -71 0 -77 52 -123 124&#10;-110 78 15 115 118 61 172 -15 15 -32 23 -41 20 -11 -4 -14 -1 -12 11 4 22 34&#10;29 53 13 41 -34 78 -171 68 -250 l-6 -43 -11 34 c-10 30 -16 34 -48 37 -30 3&#10;-39 -1 -49 -19 -23 -43 -12 -149 15 -149 8 0 28 16 45 35 17 20 31 31 31 24 0&#10;-6 -29 -40 -65 -75 -54 -53 -71 -64 -99 -64 -41 0 -70 -24 -85 -69 -13 -41&#10;-14 -101 -1 -121 8 -13 14 -12 46 5 58 31 95 83 92 129 -2 28 3 42 17 52 28&#10;21 31 18 27 -23 -3 -30 3 -47 27 -80 30 -41 116 -101 128 -89 13 12 15 112 4&#10;154 -14 51 -45 82 -84 82 l-29 0 36 41 c51 60 69 122 64 222 -4 96 -37 175&#10;-101 244 -22 24 -35 43 -28 43 6 0 53 -17 103 -37 83 -34 90 -38 60 -41 -29&#10;-3 -32 -6 -26 -25 23 -78 65 -124 104 -114 11 3 20 1 20 -4 0 -5 -11 -9 -23&#10;-9 -37 0 -57 -30 -57 -84 0 -39 5 -53 29 -77 84 -83 224 20 170 124 -16 30&#10;-28 37 -68 37 -28 0 -31 2 -22 14 8 9 8 16 2 20 -6 4 -8 13 -4 21 3 9 -2 27&#10;-11 40 -15 23 -7 21 81 -25 177 -91 191 -100 162 -100 -55 0 -84 -77 -52 -140&#10;32 -62 117 -73 168 -23 21 21 25 35 25 81 l0 55 24 -26 c13 -14 40 -29 61 -33&#10;36 -6 121 -1 131 9 9 9 -43 84 -73 104 -52 37 -80 37 -114 3 -17 -16 -35 -30&#10;-40 -30 -14 0 -11 18 5 27 16 9 40 57 50 96 6 24 4 27 -18 27 -62 0 -126 -46&#10;-126 -91 0 -31 -8 -31 -68 6 -35 21 -42 36 -14 33 62 -5 120 40 160 125 36 78&#10;34 80 -57 75 l-80 -5 41 40 c50 49 86 126 90 195 4 54 20 76 26 34 2 -16 8&#10;-22 18 -18 21 8 17 -4 -11 -30 -14 -13 -25 -33 -25 -45 0 -32 71 -99 106 -99&#10;39 0 92 34 105 68 25 66 -20 145 -84 146 l-33 1 3 50 c3 38 -1 58 -17 83 -25&#10;40 -37 38 -63 -11 -15 -30 -22 -35 -33 -26 -10 8 -11 16 -3 30 22 41 -16 96&#10;-94 135 -26 14 -52 22 -57 19 -11 -7 -5 -69 12 -122 12 -40 52 -73 87 -73 26&#10;0 27 -2 29 -64 2 -35 -1 -67 -6 -70 -4 -2 -6 9 -4 25 7 47 -57 103 -140 123&#10;-27 6 -28 5 -28 -31 1 -49 32 -117 64 -138 14 -9 38 -15 53 -13 24 3 28 -1 31&#10;-24 3 -21 -8 -39 -50 -83 -30 -30 -58 -55 -64 -55 -5 0 -9 35 -9 78 0 62 -5&#10;89 -24 130 l-25 52 -29 -27 c-84 -80 -115 -209 -60 -252 14 -12 23 -24 20 -28&#10;-4 -3 -40 -6 -80 -5 -61 0 -101 9 -223 50 -82 28 -186 58 -231 68 -46 10 -82&#10;19 -80 20 4 5 233 62 284 72 52 9 52 9 38 -12 -34 -47 -7 -134 47 -157 41 -17&#10;99 -5 126 26 16 19 22 39 22 74 0 57 -21 81 -70 81 -27 0 -30 2 -21 14 8 10 9&#10;16 1 21 -5 3 -10 10 -10 16 0 5 9 0 20 -11 28 -28 62 -25 101 7 33 28 68 93&#10;69 127 0 16 -5 17 -47 11 -63 -9 -119 -39 -137 -73 -8 -15 -15 -21 -16 -15 0&#10;18 -74 53 -110 53 -37 0 -38 -11 -5 -75 13 -27 22 -51 20 -53 -2 -3 -26 -6&#10;-52 -8 -184 -15 -391 -59 -517 -109 -34 -14 -66 -25 -69 -25 -11 0 36 89 50&#10;94 7 3 22 -3 33 -14 31 -31 68 -25 109 18 34 36 70 117 57 129 -12 12 -121&#10;-19 -154 -43 -29 -23 -33 -24 -29 -8 3 11 14 46 24 79 11 39 18 53 21 39 9&#10;-59 88 -72 126 -21 15 20 21 47 24 97 2 39 0 70 -4 70 -20 0 -114 -62 -124&#10;-81 -7 -11 -14 -18 -17 -15 -9 9 67 152 99 185 26 26 38 31 77 30 43 0 101&#10;-18 146 -46 17 -11 18 -14 5 -22 -10 -7 -18 -4 -28 11 -17 24 -71 48 -107 48&#10;-30 0 -33 -25 -9 -77 20 -41 56 -67 84 -60 11 3 20 1 20 -4 0 -5 -11 -9 -23&#10;-9 -42 0 -62 -36 -58 -108 1 -13 14 -37 30 -53 84 -83 224 20 170 124 -16 30&#10;-28 37 -66 37 l-32 0 24 25 c14 13 25 29 25 35 0 6 10 8 25 4 34 -8 32 8 -6&#10;51 -35 40 -98 79 -144 90 -28 6 -29 7 -11 20 24 18 122 39 143 31 14 -6 14 -8&#10;-1 -24 -17 -20 -20 -40 -10 -67 9 -22 77 -55 114 -55 28 0 30 2 24 28 -11 42&#10;-32 79 -56 96 -31 22 -16 20 38 -5 25 -12 52 -32 60 -45 9 -12 30 -28 47 -35&#10;l32 -13 -35 -4 c-53 -6 -70 -27 -70 -84 0 -41 5 -54 29 -79 39 -39 96 -40 140&#10;-3 63 53 47 164 -25 164 -13 0 -24 4 -24 9 0 4 11 6 25 3 32 -6 61 19 86 73&#10;26 55 24 65 -11 65 -50 0 -110 -36 -117 -70 -3 -17 -9 -30 -12 -30 -8 0 -81&#10;73 -81 81 0 2 18 3 40 1 31 -3 50 2 80 22 22 14 40 31 40 37 0 17 -70 40 -113&#10;37 -37 -3 -44 -7 -59 -38 -10 -19 -21 -35 -25 -35 -15 1 -113 27 -113 31 0 2&#10;9 23 21 47 l21 43 28 -28 c32 -32 49 -34 88 -14 46 24 113 108 98 123 -3 3&#10;-28 8 -56 11 -49 4 -50 5 -33 24 18 20 32 138 16 138 -21 0 -102 -60 -108 -80&#10;-10 -31 3 -70 25 -78 17 -6 16 -9 -10 -24 l-30 -17 0 39 c0 57 -13 49 -34 -20&#10;-10 -33 -22 -60 -26 -60 -4 0 -10 18 -13 41 -5 42 -49 119 -68 119 -16 0 -59&#10;-101 -59 -140 0 -50 24 -80 63 -80 31 0 31 0 12 -19 -21 -21 -135 -74 -135&#10;-64 0 4 8 15 18 26 13 15 17 37 17 108 0 48 -5 93 -10 98 -13 13 -101 -52&#10;-132 -98 -46 -67 -17 -151 51 -151 27 0 26 -2 -30 -55 -32 -30 -58 -53 -58&#10;-52 -1 1 0 70 2 153 l3 150 27 -4 c42 -6 65 27 70 99 5 61 4 61 -19 54 -34&#10;-10 -87 -52 -93 -72 -6 -22 -24 -149 -31 -228 -8 -81 -30 -208 -57 -319 l-21&#10;-91 -22 65 c-26 78 -48 123 -87 172 -63 81 -85 180 -58 262 10 31 16 36 44 36&#10;18 0 41 -7 52 -15 18 -14 16 -15 -20 -13 -30 2 -43 -3 -57 -21 -22 -26 -25&#10;-78 -7 -116 32 -71 154 -71 186 0 20 43 15 93 -12 120 l-23 23 23 13 c26 14&#10;64 83 64 117 0 19 -4 21 -32 15 -62 -11 -118 -52 -118 -85 0 -11 -5 -16 -10&#10;-13 -7 4 -7 12 0 25 11 21 14 99 4 124 -3 9 -12 16 -19 16 -15 0 -75 -65 -76&#10;-83 0 -7 -9 8 -20 32 l-19 44 -26 -24 c-77 -72 -67 -166 17 -152 l28 4 -16&#10;-38 c-9 -21 -16 -68 -17 -106 l-1 -68 -29 5 c-38 8 -45 15 -25 29 26 20 38 51&#10;33 88 -6 37 -52 120 -70 126 -18 6 -64 -96 -64 -139 0 -27 7 -46 23 -62 l24&#10;-24 -56 -5 c-31 -3 -64 -8 -73 -12 -15 -6 -18 -1 -18 28 0 43 -17 58 -68 59&#10;-39 0 -102 -25 -102 -42 0 -16 59 -51 95 -57 52 -8 37 -28 -21 -28 -48 0 -49&#10;-1 -71 -45 -44 -86 -24 -111 58 -69 27 13 45 32 55 54 8 19 22 39 32 44 16 9&#10;16 5 -4 -37 -26 -52 -42 -156 -26 -166 27 -16 143 60 166 109 20 42 14 71 -23&#10;103 l-26 23 40 -5 c139 -20 222 -90 279 -235 24 -61 32 -194 15 -251 -12 -42&#10;-13 -43 -16 -15 -7 71 -25 135 -38 135 -24 0 -79 -56 -103 -103 -41 -82 -24&#10;-127 52 -136 l47 -6 -45 -61 c-48 -66 -86 -95 -60 -46 24 46 -3 131 -61 201&#10;l-27 31 30 0 c36 0 62 27 62 66 0 44 -63 98 -136 119 -16 4 -23 0 -26 -13 -6&#10;-23 14 -104 34 -134 15 -21 14 -27 -10 -73 -17 -35 -27 -72 -30 -122 -4 -67&#10;-3 -73 21 -97 14 -14 37 -26 51 -26 39 0 38 -14 -5 -56 -23 -21 -61 -67 -86&#10;-102 -25 -35 -47 -61 -49 -60 -1 2 -4 39 -5 82 -1 43 -10 131 -19 195 -34 221&#10;-73 338 -158 469 -35 54 -41 73 -47 139 -10 106 7 218 46 295 35 71 86 138&#10;127 166 l27 20 18 -25 c18 -24 18 -24 -7 -17 -13 3 -33 3 -43 0 -43 -14 -68&#10;-109 -43 -157 14 -25 62 -49 101 -49 48 0 99 56 99 108 0 32 -5 44 -27 61&#10;l-28 20 31 -11 c42 -15 81 -3 122 38 41 41 35 54 -32 61 -61 7 -93 -2 -109&#10;-32 l-13 -26 -21 25 -22 25 57 21 c31 12 79 26 106 31 45 8 52 7 66 -10 20&#10;-26 57 -32 101 -17 37 13 109 65 109 79 0 16 -86 47 -130 47 -48 0 -90 -21&#10;-90 -46 0 -10 -11 -14 -37 -13 -32 0 -35 2 -16 9 34 14 57 57 57 109 0 45 -21&#10;141 -31 141 -17 0 -87 -69 -103 -101 -24 -46 -26 -111 -5 -129 26 -21 17 -35&#10;-30 -46 -50 -11 -53 -9 -27 19 28 31 22 128 -13 205 -15 34 -33 62 -39 62 -6&#10;0 -26 -20 -43 -43 -61 -82 -83 -167 -57 -219 13 -26 26 -32 78 -40 14 -2 6&#10;-11 -32 -35 -54 -36 -66 -40 -59 -20 11 31 -48 157 -74 157 -16 0 -59 -102&#10;-59 -140 0 -45 24 -80 56 -80 29 0 30 -7 3 -39 -17 -21 -22 -22 -30 -10 -5 7&#10;-9 19 -9 24 0 6 -22 43 -49 83 -62 90 -81 168 -65 252 l7 32 13 -31 c18 -43&#10;70 -73 114 -67 50 8 90 55 90 107 0 73 -92 139 -130 94 -7 -8 -17 -15 -23 -15&#10;-6 0 -1 9 11 20 14 13 22 33 22 52 0 39 -38 120 -54 116 -6 -2 -20 -23 -31&#10;-46 -11 -23 -23 -41 -26 -42 -4 0 -10 16 -14 36 -7 41 -35 104 -46 104 -4 0&#10;-20 -15 -35 -32z m-819 -1379 l50 -12 -55 -17 c-128 -39 -219 -109 -279 -213&#10;-39 -68 -49 -107 -28 -107 9 0 20 7 25 16 8 14 10 14 15 1 3 -9 -1 -18 -10&#10;-21 -12 -5 -13 -9 -3 -21 11 -13 8 -15 -20 -15 -19 0 -42 -7 -52 -16 -16 -16&#10;-18 -15 -24 2 -4 11 -13 26 -21 35 -12 15 -10 17 21 23 43 8 60 29 60 73 0 25&#10;-7 41 -23 54 l-23 19 22 0 c12 0 35 13 51 29 24 25 29 38 29 80 0 54 -17 81&#10;-52 81 -18 0 -19 2 -7 16 12 14 31 16 144 11 71 -3 153 -11 180 -18z m953 -13&#10;c56 -36 140 -129 163 -183 23 -52 49 -192 49 -261 l0 -44 -57 52 c-32 28 -85&#10;68 -117 88 -58 36 -59 37 -30 43 70 14 94 43 94 111 0 60 -18 82 -64 80 -20&#10;-1 -34 3 -31 8 11 18 -14 94 -37 112 -33 26 -14 22 30 -6z" style="fill: rgb(181, 93, 93);"/>
    <path d="M460 3143 c-60 -74 -64 -154 -8 -181 79 -37 127 69 78 176 -10 23&#10;-23 42 -29 42 -5 0 -23 -17 -41 -37z" style="fill: rgb(181, 93, 93);"/>
    <path d="M276 3063 c-10 -10 -7 -74 5 -117 21 -76 86 -109 129 -66 28 28 25&#10;72 -6 110 -28 32 -117 84 -128 73z" style="fill: rgb(181, 93, 93);"/>
    <path d="M2101 2714 c-26 -33 -28 -96 -5 -150 21 -51 74 -124 89 -124 18 0 65&#10;112 72 169 6 56 -9 106 -38 121 -10 6 -36 10 -58 10 -31 0 -44 -6 -60 -26z" style="fill: rgb(181, 93, 93);"/>
    <path d="M3150 1632 c-40 -40 -40 -80 0 -126 17 -19 50 -44 73 -55 49 -24 125&#10;-42 132 -32 7 12 -20 113 -42 156 -28 53 -53 75 -96 82 -31 5 -40 1 -67 -25z" style="fill: rgb(181, 93, 93);"/>
    <path d="M2152 1393 c-43 -17 -57 -143 -25 -225 24 -64 29 -66 69 -27 85 82&#10;113 182 65 233 -24 25 -73 34 -109 19z" style="fill: rgb(181, 93, 93);"/>
    <path d="M2720 1110 c-40 -40 -16 -102 48 -120 43 -12 132 -14 132 -2 0 19&#10;-61 111 -84 125 -34 23 -72 21 -96 -3z" style="fill: rgb(181, 93, 93);"/>
  </g>
</svg>