<?xml version="1.0" standalone="no"?>
<!DOCTYPE svg PUBLIC "-//W3C//DTD SVG 20010904//EN"
 "http://www.w3.org/TR/2001/REC-SVG-20010904/DTD/svg10.dtd">
<svg version="1.0" xmlns="http://www.w3.org/2000/svg"
 width="721.000000pt" height="521.000000pt" viewBox="0 0 721.000000 521.000000"
 preserveAspectRatio="xMidYMid meet">
<metadata>
Created by potrace 1.14, written by Peter Selinger 2001-2017
</metadata>
<g transform="translate(0.000000,521.000000) scale(0.100000,-0.100000)"
fill="#000000" stroke="none">
<path d="M2836 4264 c-24 -24 -51 -44 -59 -44 -18 0 -97 -50 -97 -62 0 -4 -10
-8 -23 -8 -23 0 -44 -16 -79 -59 -10 -11 -26 -21 -36 -21 -10 0 -25 -8 -33
-17 -29 -32 -69 -63 -83 -63 -7 0 -21 -9 -31 -20 -10 -11 -26 -20 -35 -20 -20
0 -119 -61 -119 -73 -2 -16 -46 -46 -68 -47 -13 0 -28 -9 -35 -20 -7 -11 -22
-20 -33 -20 -25 -1 -75 -44 -75 -65 0 -8 -8 -15 -19 -15 -10 0 -30 -9 -44 -20
-14 -11 -39 -23 -56 -26 -17 -4 -36 -13 -42 -20 -6 -8 -17 -14 -23 -14 -6 0
-23 -13 -39 -29 -15 -15 -45 -36 -67 -46 -22 -10 -40 -21 -40 -25 0 -4 -18
-13 -40 -20 -22 -7 -40 -16 -40 -21 0 -4 -11 -10 -25 -13 -14 -4 -25 -12 -25
-19 0 -7 -26 -26 -57 -42 -62 -32 -112 -79 -113 -107 0 -10 -6 -18 -12 -19 -7
0 -4 -4 8 -9 19 -7 87 -11 234 -11 83 0 142 -6 179 -19 32 -10 37 -16 33 -36
-2 -13 -1 -32 4 -41 4 -10 9 -31 11 -46 1 -16 10 -38 18 -50 8 -12 15 -36 15
-55 0 -18 5 -42 11 -53 5 -11 19 -52 29 -91 10 -39 24 -75 32 -79 7 -5 14 -28
14 -52 1 -25 4 -50 8 -56 9 -14 53 -14 62 0 7 12 12 110 16 339 3 131 6 156
19 162 12 5 16 19 15 59 -2 78 -19 87 -181 95 -71 3 -141 7 -155 8 -14 2 -35
4 -47 5 -20 1 -35 31 -15 31 4 0 15 14 24 30 10 18 25 30 38 30 11 0 20 5 20
10 0 6 5 10 11 10 6 0 23 9 39 20 15 11 29 17 32 14 3 -2 11 2 18 11 7 8 20
15 29 15 9 0 31 16 50 35 19 20 51 43 70 52 20 10 43 25 52 35 9 10 31 23 49
30 18 6 41 18 52 27 10 9 27 23 37 33 10 9 30 19 43 23 36 12 67 35 73 56 4
10 14 19 24 19 28 0 133 58 164 91 15 16 37 34 50 40 35 16 65 34 85 52 10 10
28 17 40 17 15 0 22 6 22 19 0 10 8 22 18 25 9 3 44 22 77 40 131 75 131 75
330 58 72 -6 155 -11 185 -11 30 0 69 -1 85 -2 17 -1 48 -1 70 0 66 3 249 -6
268 -14 9 -4 17 -11 17 -15 0 -15 -142 -138 -167 -145 -14 -3 -37 -17 -51 -31
-15 -13 -32 -22 -38 -20 -7 3 -22 -6 -35 -20 -12 -13 -31 -24 -41 -24 -11 0
-16 -4 -13 -10 3 -5 -1 -10 -9 -10 -8 0 -43 -25 -78 -55 -35 -31 -75 -59 -90
-62 -15 -3 -39 -16 -53 -29 -14 -13 -32 -24 -39 -24 -7 0 -18 -11 -24 -25 -6
-14 -32 -35 -57 -47 -25 -12 -45 -26 -45 -30 0 -4 -11 -8 -25 -8 -14 0 -25 -4
-25 -9 0 -6 -18 -20 -40 -32 -22 -13 -40 -29 -40 -36 0 -7 -8 -13 -18 -13 -11
0 -27 -9 -36 -19 -10 -11 -27 -21 -39 -23 -13 -2 -23 -13 -28 -30 -7 -27 3
-38 16 -17 4 6 19 7 37 4 21 -5 35 -2 49 11 10 9 22 14 25 11 9 -9 46 12 62
35 7 10 24 18 37 18 13 0 48 14 78 30 30 17 62 30 70 30 7 0 24 9 37 20 13 11
28 20 33 20 6 0 43 16 84 35 41 19 80 35 88 35 8 0 15 7 15 15 0 8 7 15 14 15
8 0 46 16 85 35 38 19 76 35 84 35 7 0 22 9 32 20 10 11 27 20 37 20 10 0 37
9 60 20 22 11 44 17 48 15 4 -2 15 4 25 15 10 11 29 20 42 20 12 0 22 5 20 11
-1 6 11 16 28 22 16 6 36 16 43 24 7 7 19 13 26 13 7 0 25 9 40 21 34 27 89
12 144 -38 14 -13 31 -23 38 -23 7 0 11 -6 8 -13 -3 -8 14 -22 46 -37 27 -13
63 -37 79 -54 17 -17 38 -38 47 -46 21 -18 105 -60 120 -60 15 0 50 -41 59
-68 4 -14 12 -21 20 -18 8 3 19 -2 25 -10 7 -8 18 -14 25 -14 7 0 27 -13 44
-29 18 -17 41 -33 52 -36 10 -4 19 -10 19 -15 0 -8 54 -42 70 -45 26 -4 100
-65 100 -83 0 -5 30 -23 68 -40 76 -36 112 -63 112 -85 0 -8 14 -20 30 -26 17
-5 30 -15 30 -20 0 -6 11 -13 25 -17 20 -5 25 -12 25 -37 0 -29 1 -30 15 -11
14 18 14 18 8 -3 -5 -23 -6 -23 -199 -20 -143 1 -196 -1 -205 -10 -9 -9 -14
-54 -15 -140 -1 -71 -3 -132 -4 -138 -6 -27 2 -65 15 -78 10 -10 11 -17 4 -19
-12 -4 -14 -205 -3 -240 3 -10 1 -18 -4 -18 -9 0 -6 -149 3 -158 3 -3 0 -11
-7 -19 -8 -10 -8 -20 2 -38 10 -19 10 -28 1 -39 -7 -8 -9 -25 -5 -40 4 -16 2
-26 -5 -26 -17 0 -13 -17 15 -60 17 -26 35 -40 52 -42 43 -5 81 11 88 38 3 13
24 34 49 48 24 14 56 40 71 56 16 17 45 38 64 46 19 8 47 27 62 41 14 14 32
22 38 18 7 -4 14 2 17 14 6 22 51 52 88 58 11 2 37 15 57 28 21 14 41 25 46
25 5 0 17 9 26 19 10 11 24 17 31 15 7 -3 30 11 51 30 21 20 52 41 69 47 16 6
48 19 70 29 79 36 159 52 243 48 l82 -3 0 46 0 46 -42 8 c-61 11 -128 12 -128
1 0 -4 -13 -6 -30 -4 -16 3 -30 1 -30 -3 0 -4 -26 -13 -57 -19 -32 -7 -66 -16
-75 -21 -10 -5 -23 -9 -30 -9 -14 0 -102 89 -111 114 -4 9 -12 16 -18 16 -7 0
-17 8 -24 17 -11 14 -18 15 -56 4 -24 -7 -60 -13 -79 -13 -19 0 -42 -4 -50 -9
-9 -4 -42 0 -75 8 -99 26 -155 28 -193 7 -41 -22 -59 -13 -85 39 -17 33 -17
39 -3 58 11 16 12 27 5 41 -6 10 -7 29 -3 41 4 12 7 29 6 37 -2 13 37 15 308
12 274 -2 313 -1 335 14 33 22 33 66 0 99 -13 14 -31 25 -40 25 -8 0 -15 5
-15 10 0 6 -5 10 -11 10 -20 0 -119 53 -119 65 0 6 -16 17 -35 24 -19 7 -35
16 -35 20 0 4 -19 16 -42 27 -48 21 -48 21 -103 69 -22 19 -53 39 -70 46 -49
18 -88 40 -116 66 -16 15 -32 21 -42 17 -13 -5 -16 -2 -11 9 4 11 -6 22 -33
37 -21 11 -58 32 -83 45 -25 14 -55 36 -67 50 -12 14 -25 25 -29 25 -11 0
-105 79 -133 112 -13 15 -31 28 -40 28 -9 0 -47 26 -83 58 -109 94 -132 112
-145 112 -7 0 -13 7 -13 14 0 17 -54 60 -88 71 -17 5 -21 12 -17 26 5 13 2 19
-10 19 -9 0 -33 18 -54 39 -52 53 -110 81 -166 81 -26 0 -55 4 -65 10 -12 6
-36 6 -71 0 -36 -7 -56 -7 -65 1 -15 12 -101 22 -166 19 -7 -1 -53 2 -103 4
-135 8 -323 16 -478 20 l-138 4 -43 -44z m2568 -1560 c8 -3 13 -11 10 -18 -3
-7 6 -17 19 -23 40 -18 32 -55 -24 -112 -27 -27 -67 -57 -89 -67 -22 -10 -40
-22 -40 -26 0 -5 -13 -14 -30 -19 -16 -6 -30 -16 -30 -22 0 -6 -3 -7 -6 -4
-12 11 -44 -13 -44 -33 0 -13 -5 -18 -16 -13 -8 3 -25 -3 -37 -15 -12 -11 -33
-23 -46 -27 -14 -4 -32 -15 -40 -25 -20 -22 -76 -41 -97 -33 -9 3 -15 16 -14
32 1 14 1 28 0 31 -8 21 -7 61 1 95 12 44 80 106 141 127 18 6 53 25 78 42 69
47 81 54 135 80 28 14 64 26 80 29 17 2 31 5 32 6 1 0 8 -2 17 -5z"/>
<path d="M3510 3115 c-35 -12 -50 -37 -31 -49 5 -4 7 -22 4 -41 -4 -25 -2 -35
7 -35 9 0 8 -5 -3 -18 -19 -21 -22 -75 -7 -137 7 -31 6 -43 -7 -57 -14 -16
-13 -18 13 -29 29 -11 29 -11 6 -20 -18 -7 -21 -12 -13 -27 11 -21 3 -100 -11
-108 -5 -3 -3 -12 4 -21 13 -16 20 -91 10 -108 -11 -17 -10 -79 1 -93 8 -10 7
-16 -4 -22 -12 -8 -11 -13 7 -30 l21 -22 29 26 c26 22 28 27 16 46 -9 14 -9
26 -2 39 7 14 6 22 -5 31 -19 16 -19 40 0 40 18 0 19 12 4 27 -8 8 -8 17 -1
30 6 11 7 25 2 33 -5 9 -5 20 2 27 8 10 7 17 -6 26 -16 12 -16 14 2 30 15 14
17 25 12 67 -3 27 -3 55 2 62 4 7 5 20 2 30 -2 9 0 19 6 23 5 3 10 21 10 40 0
19 6 35 14 38 8 3 12 14 10 24 -4 15 0 19 23 18 17 0 27 5 26 13 -2 6 4 12 12
12 8 0 15 -4 15 -9 0 -6 21 -9 48 -9 26 1 66 -2 90 -6 30 -6 42 -4 42 4 0 8 9
10 28 5 15 -4 68 -9 117 -9 90 -2 90 -2 93 -29 2 -15 8 -27 13 -27 5 0 4 -9
-3 -21 -11 -17 -10 -22 6 -34 17 -13 17 -19 7 -61 -7 -26 -9 -60 -6 -75 5 -23
3 -29 -10 -29 -14 0 -13 -4 6 -19 22 -18 23 -20 7 -38 -12 -13 -14 -23 -7 -36
6 -9 8 -21 5 -26 -3 -4 -1 -34 4 -66 7 -41 6 -63 -1 -72 -8 -9 -8 -17 -1 -25
5 -7 13 -32 17 -55 4 -24 10 -45 15 -48 4 -3 6 -14 3 -24 -3 -10 0 -22 6 -25
6 -4 11 -16 11 -27 0 -11 7 -22 16 -26 11 -4 14 -14 10 -34 -4 -23 -1 -32 19
-45 27 -18 45 -12 45 16 0 10 7 20 15 24 12 4 13 11 4 32 -8 22 -7 29 6 36 8
5 12 14 9 20 -11 18 -11 266 0 346 8 59 7 75 -3 82 -10 5 -11 16 -6 36 5 16 8
57 7 91 0 35 3 65 8 68 5 3 7 19 4 34 -3 16 -1 32 5 35 7 5 7 15 0 33 -5 15
-7 45 -3 66 4 27 3 37 -4 33 -6 -4 -16 3 -22 14 -9 17 -21 20 -70 20 -32 0
-62 5 -66 11 -4 7 -22 9 -48 5 -22 -4 -54 -6 -71 -6 -100 1 -294 8 -380 13
-70 4 -110 2 -135 -8z"/>
<path d="M1380 2880 c-25 -5 -72 -6 -105 -3 -50 4 -70 0 -116 -20 -37 -17 -60
-22 -71 -16 -11 6 -20 4 -28 -6 -7 -9 -33 -20 -57 -27 -25 -6 -47 -17 -50 -24
-3 -8 -13 -14 -23 -14 -10 0 -23 -7 -30 -15 -7 -8 -18 -15 -25 -15 -7 0 -15
-9 -18 -20 -3 -11 -14 -20 -25 -20 -11 0 -27 -11 -35 -24 -9 -13 -31 -29 -50
-35 -23 -8 -38 -22 -48 -44 -8 -17 -24 -36 -36 -42 -13 -5 -23 -15 -23 -22 0
-6 -13 -27 -30 -45 -34 -37 -41 -75 -12 -63 9 5 26 9 37 10 56 7 88 20 92 36
3 10 17 21 32 24 28 6 71 35 100 68 8 9 21 17 27 17 6 0 17 6 23 14 23 27 226
116 265 116 16 0 26 6 26 14 0 11 20 16 78 20 42 4 89 10 104 15 16 5 28 5 30
0 2 -5 21 -9 43 -9 68 0 137 -1 202 -3 47 -1 66 2 79 15 16 16 16 18 -7 37
-13 11 -40 26 -59 32 -19 7 -39 18 -45 25 -18 24 -170 38 -245 24z"/>
<path d="M6028 2713 c-25 -6 -26 -102 -2 -99 11 1 21 -13 29 -41 13 -42 12
-44 -16 -67 -25 -21 -29 -32 -29 -75 0 -43 3 -51 19 -51 10 0 24 7 31 15 7 8
28 17 49 20 20 3 44 10 54 16 11 6 17 6 17 -2 0 -9 4 -9 14 0 19 16 65 21 186
21 87 0 107 -3 118 -17 6 -9 12 -14 12 -10 0 17 62 -26 70 -48 10 -27 3 -85
-11 -85 -5 0 -9 -10 -9 -23 0 -15 -14 -36 -40 -57 -22 -18 -40 -39 -40 -46 0
-7 -13 -17 -30 -23 -16 -5 -30 -15 -30 -20 0 -6 -11 -13 -25 -17 -14 -3 -25
-10 -25 -15 0 -5 -9 -9 -19 -9 -11 0 -22 -4 -25 -9 -3 -4 -19 -11 -36 -14 -18
-4 -30 -13 -30 -22 0 -8 -6 -15 -14 -15 -7 0 -19 -7 -26 -15 -7 -8 -23 -15
-36 -15 -15 0 -24 -6 -24 -15 0 -14 -12 -20 -34 -16 -5 1 -16 -5 -25 -12 -9
-8 -33 -20 -53 -28 l-38 -13 0 -63 c0 -35 2 -63 6 -63 15 0 84 47 84 57 0 6
17 17 38 23 55 18 142 61 142 71 0 5 7 9 15 9 8 0 28 13 45 30 16 16 49 35 72
42 52 14 83 32 123 69 17 15 54 49 83 76 31 28 54 58 56 73 2 14 7 33 11 43 4
10 5 44 3 76 -3 43 -11 66 -29 88 -13 17 -31 40 -39 52 -8 11 -20 21 -27 21
-7 0 -13 5 -13 10 0 6 -6 10 -14 10 -7 0 -33 11 -58 24 -40 21 -56 23 -170 23
-128 -1 -158 7 -158 38 0 8 -11 23 -26 34 -14 11 -24 23 -24 27 2 10 -32 23
-43 17 -5 -3 -16 1 -25 9 -9 8 -25 13 -34 11z"/>
<path d="M1775 2570 c-11 -5 -53 -9 -92 -9 -40 -1 -73 -4 -73 -9 0 -4 -17 -8
-37 -9 -72 -2 -173 -63 -160 -96 6 -15 63 -12 73 4 3 5 30 9 60 9 31 0 64 5
75 11 14 7 30 7 54 -1 26 -9 39 -8 57 2 30 17 262 16 282 -1 8 -7 52 -13 98
-15 54 -3 102 -11 136 -25 29 -12 62 -21 73 -21 12 0 33 -7 47 -14 44 -24 95
-44 130 -51 17 -4 32 -11 32 -16 0 -5 11 -9 24 -9 13 0 29 -7 36 -15 7 -9 19
-14 27 -11 7 3 13 1 13 -5 0 -5 11 -14 25 -19 13 -5 38 -22 55 -37 18 -15 37
-28 43 -28 27 -2 149 -69 184 -102 21 -19 53 -46 71 -60 17 -14 32 -34 32 -44
0 -11 7 -19 16 -19 20 0 84 -51 84 -67 0 -12 13 -17 33 -14 4 0 7 -6 7 -15 0
-9 9 -25 21 -35 11 -9 19 -21 17 -26 -2 -4 9 -14 25 -21 15 -7 27 -19 27 -27
0 -16 40 -59 70 -75 11 -6 20 -17 20 -24 0 -8 11 -17 25 -20 14 -4 25 -13 25
-20 0 -14 49 -29 135 -42 28 -4 60 -14 72 -22 14 -8 33 -12 47 -8 14 3 37 1
53 -5 15 -6 46 -12 68 -14 22 -2 74 -10 115 -19 41 -8 94 -15 118 -15 28 -1
42 -5 42 -15 0 -10 29 -17 108 -25 59 -7 111 -17 116 -22 6 -5 37 -9 70 -9 35
0 66 -5 75 -13 20 -17 115 -47 147 -47 12 0 26 -5 29 -10 4 -6 14 -9 23 -8 11
2 18 -5 20 -19 2 -13 9 -23 16 -23 19 0 44 -32 30 -37 -6 -2 -9 -14 -7 -27 4
-17 -1 -27 -16 -35 -12 -7 -21 -18 -21 -26 0 -8 -5 -15 -10 -15 -6 0 -15 -10
-21 -23 -11 -24 -65 -45 -129 -49 -19 -2 -38 -7 -41 -12 -13 -17 -292 -5 -314
14 -7 6 -37 10 -66 9 -82 -2 -179 11 -210 27 -18 9 -59 14 -117 14 -101 0
-251 18 -269 32 -6 5 -31 11 -55 13 -24 2 -77 7 -118 10 -41 4 -84 12 -95 19
-11 7 -42 16 -70 21 -27 4 -75 12 -105 17 -142 23 -179 28 -235 31 -33 1 -80
9 -104 16 -24 7 -85 14 -135 16 -50 2 -119 8 -154 15 -34 6 -93 12 -130 14
-37 2 -101 9 -142 16 -41 6 -97 13 -125 15 -27 1 -61 7 -75 13 -14 5 -73 10
-132 11 -58 1 -120 6 -138 11 -40 11 -172 0 -185 -15 -5 -7 -23 -16 -40 -20
-16 -3 -37 -12 -45 -19 -8 -8 -27 -16 -42 -20 -16 -3 -28 -13 -28 -21 0 -8 -9
-15 -20 -15 -11 0 -20 -5 -20 -10 0 -6 -17 -18 -37 -28 -21 -9 -46 -26 -55
-37 -31 -36 -73 -75 -80 -75 -4 0 -19 -18 -33 -40 -14 -23 -34 -44 -43 -47
-18 -6 -82 -69 -82 -81 0 -4 -9 -13 -20 -19 -11 -7 -27 -27 -36 -45 -9 -18
-23 -37 -30 -41 -8 -4 -21 -24 -29 -44 -27 -63 -14 -113 21 -79 8 9 19 16 24
16 15 0 60 46 60 61 0 8 13 22 29 32 16 9 68 55 116 102 48 47 92 85 97 85 5
0 21 14 36 31 14 18 42 38 60 46 39 16 62 36 62 52 0 6 9 11 20 11 11 0 20 4
20 8 0 4 17 14 38 21 20 8 48 21 61 29 13 9 33 17 45 19 76 11 171 12 259 2
56 -6 123 -10 149 -9 25 0 49 -4 53 -10 3 -5 31 -10 61 -10 31 0 63 -4 72 -9
10 -5 62 -12 117 -16 55 -4 108 -12 119 -17 10 -6 42 -8 70 -4 28 3 80 1 116
-4 36 -5 103 -10 150 -11 54 -2 91 -8 102 -17 11 -9 58 -17 132 -21 63 -4 120
-12 128 -18 13 -11 54 -17 203 -29 44 -3 85 -11 92 -16 6 -5 31 -9 55 -10 23
0 64 -7 90 -16 41 -13 49 -14 64 -1 16 13 17 12 11 -5 -6 -16 -3 -18 25 -14
18 3 57 -1 88 -8 30 -7 71 -14 90 -14 19 0 41 -4 49 -9 7 -5 26 -5 42 -1 15 5
29 5 31 0 4 -10 132 -32 209 -35 31 -1 80 -8 109 -15 38 -9 81 -10 149 -5 53
5 116 10 141 11 43 2 77 12 145 40 17 7 48 20 71 29 28 11 47 28 63 55 12 21
25 40 30 42 5 2 11 21 13 43 3 43 15 53 65 54 17 1 34 5 38 10 3 5 50 10 105
10 143 0 245 18 261 47 6 13 26 26 43 30 29 6 111 59 148 97 10 9 24 17 32 17
8 0 22 8 32 18 20 19 71 60 104 82 13 8 30 22 39 31 20 19 81 45 99 41 6 -2
12 2 12 8 0 16 38 47 78 65 17 8 32 19 32 24 0 6 8 11 18 11 10 0 25 9 35 20
10 12 22 18 27 15 6 -4 10 17 10 54 0 56 -1 59 -22 56 -37 -4 -58 -16 -58 -31
0 -13 -78 -56 -105 -58 -14 -1 -69 -38 -78 -53 -4 -7 -17 -13 -27 -13 -13 0
-20 -7 -20 -20 0 -11 -7 -20 -15 -20 -8 0 -31 -11 -51 -25 -20 -14 -45 -25
-55 -25 -11 0 -19 -4 -19 -9 0 -5 -10 -11 -23 -15 -13 -3 -36 -17 -51 -31 -15
-14 -31 -23 -36 -20 -4 3 -11 -2 -14 -11 -3 -8 -20 -21 -38 -29 -18 -7 -45
-24 -59 -37 -15 -12 -30 -24 -35 -25 -5 -1 -27 -9 -49 -17 -22 -8 -54 -15 -70
-16 -17 0 -35 -4 -40 -9 -10 -9 -288 -17 -330 -10 -11 2 -26 16 -34 32 -7 15
-27 35 -42 44 -16 10 -29 21 -29 25 0 4 -15 10 -34 14 -19 3 -37 12 -40 20 -3
8 -12 11 -22 7 -9 -3 -20 0 -24 7 -6 10 -29 13 -75 12 -36 -1 -74 2 -84 7 -9
5 -62 12 -117 16 -54 3 -128 10 -163 16 -36 5 -88 7 -117 3 -33 -4 -54 -2 -58
5 -4 6 -18 11 -31 11 -13 0 -25 4 -27 10 -1 5 -29 12 -61 15 -31 2 -70 11 -85
19 -23 12 -90 33 -127 40 -29 6 -55 18 -55 27 0 5 -6 9 -13 9 -30 0 -133 98
-149 142 -5 16 -14 25 -19 22 -5 -3 -9 -1 -9 4 0 5 -27 35 -61 68 -77 75 -93
91 -125 132 -14 17 -29 32 -34 32 -9 0 -106 64 -132 87 -10 9 -18 13 -18 10 0
-4 -21 7 -47 23 -26 17 -50 30 -54 30 -5 0 -28 14 -52 30 -25 17 -49 30 -53
30 -5 1 -27 9 -49 20 -22 11 -51 19 -63 20 -23 0 -42 8 -107 43 -16 9 -47 24
-67 33 -21 9 -38 20 -38 24 0 4 -30 10 -67 14 -38 3 -88 13 -113 20 -75 24
-166 37 -208 30 -27 -4 -49 -1 -71 11 -27 13 -38 14 -67 5 -20 -7 -50 -9 -67
-6 -69 13 -103 14 -122 6z"/>
<path d="M5959 2471 c-19 -9 -43 -24 -53 -34 -10 -9 -28 -17 -41 -17 -13 0
-31 -7 -39 -16 -9 -8 -25 -17 -37 -19 -12 -2 -26 -8 -33 -13 -6 -5 -24 -12
-39 -16 -15 -4 -32 -17 -38 -29 -10 -22 -110 -76 -154 -84 -11 -2 -25 -9 -30
-16 -10 -12 -31 -25 -105 -64 -19 -10 -39 -24 -43 -30 -4 -7 -18 -13 -31 -13
-15 0 -26 -7 -29 -19 -3 -14 -17 -21 -51 -26 -25 -4 -51 -13 -57 -21 -6 -8
-18 -14 -26 -14 -8 0 -33 -14 -54 -31 -22 -17 -46 -29 -53 -26 -7 3 -18 1 -23
-4 -5 -5 -38 -12 -73 -15 -36 -4 -71 -12 -79 -18 -17 -13 -436 -16 -468 -3
-13 6 -51 6 -98 0 -42 -5 -78 -6 -81 -1 -3 4 -40 8 -82 7 -42 0 -84 2 -92 5
-8 3 -44 8 -79 10 -36 3 -67 10 -70 15 -3 4 -22 11 -41 14 -19 3 -47 9 -63 12
-16 4 -40 2 -58 -6 -31 -12 -31 -13 -12 -29 11 -9 25 -26 32 -37 12 -24 61
-42 131 -49 24 -3 49 -9 54 -14 6 -6 22 -10 37 -10 15 0 29 -5 31 -12 3 -8
111 -11 409 -12 380 -1 410 0 499 21 160 36 210 52 244 78 18 13 52 32 76 40
24 9 51 22 60 29 8 8 32 19 53 24 38 11 90 45 125 82 9 10 47 30 84 45 37 15
77 35 89 46 12 10 29 19 38 19 17 0 51 33 51 49 0 11 25 21 51 21 10 0 19 5
19 10 0 6 5 10 10 10 6 0 29 9 52 20 23 11 56 22 74 26 46 8 56 24 52 81 l-3
50 -36 -16z"/>
</g>
</svg>
