<?xml version="1.0" encoding="utf-8"?>
<svg width="400pt" height="400pt" viewBox="258 226 400 400" preserveAspectRatio="xMidYMid meet" xmlns="http://www.w3.org/2000/svg">
  <g transform="matrix(0.034499, 0, 0, -0.035735, 286.765656, 576.054199)" fill="#000000" stroke="none">
    <path d="M3384 8155 c-796 -102 -1476 -533 -1893 -1200 -530 -849 -479 -1953&#10;128 -2759 176 -233 432 -469 668 -616 40 -25 72 -47 73 -50 0 -3 -46 -23 -102&#10;-45 -221 -86 -527 -254 -740 -406 -639 -458 -1105 -1084 -1348 -1809 -64 -194&#10;-144 -543 -157 -691 -15 -163 77 -301 228 -343 73 -21 104 -20 182 4 48 15 78&#10;32 115 68 72 67 96 126 94 227 -2 153 84 500 189 751 248 597 688 1103 1263&#10;1449 106 64 379 195 496 238 314 116 615 178 950 196 128 7 151 11 196 34 147&#10;75 206 250 133 395 -35 70 -71 105 -148 140 -45 21 -71 25 -165 27 -357 9&#10;-794 180 -1106 432 -89 72 -257 243 -321 328 -427 559 -510 1307 -213 1935&#10;292 615 865 1024 1559 1110 52 7 192 10 335 8 l245 -3 57 28 c70 35 131 102&#10;154 169 21 65 15 167 -14 224 -28 56 -111 128 -170 149 -67 23 -530 30 -688&#10;10z" style="fill: rgb(45, 139, 167);"/>
    <path d="M5880 7950 c-442 -46 -850 -189 -1200 -422 -540 -360 -919 -897&#10;-1065 -1508 -39 -166 -55 -291 -62 -480 -29 -867 391 -1666 1139 -2162 l97&#10;-64 -117 -48 c-233 -97 -496 -241 -701 -383 -243 -170 -533 -433 -713 -648&#10;-397 -474 -667 -1040 -777 -1630 -12 -60 -26 -132 -31 -158 -49 -239 70 -421&#10;284 -435 130 -8 237 54 295 170 28 55 31 71 31 151 0 156 67 433 166 687 349&#10;893 1131 1582 2081 1835 277 74 481 98 823 98 291 0 394 -10 635 -58 456 -92&#10;920 -307 1305 -605 198 -154 467 -439 621 -660 264 -376 463 -893 499 -1292&#10;13 -155 67 -245 179 -300 66 -33 207 -33 268 0 65 34 110 78 138 136 45 93 44&#10;148 -16 456 -93 481 -300 959 -598 1380 -161 228 -460 543 -686 723 -238 190&#10;-543 375 -813 493 -81 36 -160 70 -176 77 l-29 13 104 69 c591 394 977 983&#10;1100 1680 30 170 37 482 15 669 -65 557 -309 1060 -711 1462 -401 401 -892&#10;648 -1460 735 -148 23 -488 33 -625 19z m470 -595 c240 -29 454 -92 659 -194&#10;204 -102 330 -192 495 -351 280 -271 460 -593 541 -965 120 -551 -21 -1132&#10;-382 -1576 -79 -98 -266 -275 -363 -345 -230 -166 -479 -277 -761 -340 -100&#10;-23 -144 -27 -358 -31 -271 -6 -352 1 -544 48 -732 179 -1307 772 -1447 1494&#10;-164 848 268 1692 1061 2075 343 165 729 230 1099 185z" style="fill: rgb(45, 139, 167);"/>
  </g>
  <rect transform="matrix(NaN, NaN, NaN, NaN, NaN, NaN)" style="fill: rgb(216, 216, 216);"/>
</svg>