<?xml version="1.0" standalone="no"?>
<!DOCTYPE svg PUBLIC "-//W3C//DTD SVG 20010904//EN"
 "http://www.w3.org/TR/2001/REC-SVG-20010904/DTD/svg10.dtd">
<svg version="1.0" xmlns="http://www.w3.org/2000/svg"
 width="74.000000pt" height="41.000000pt" viewBox="0 0 74.000000 41.000000"
 preserveAspectRatio="xMidYMid meet">
<metadata>
Created by potrace 1.14, written by Peter Selinger 2001-2017
</metadata>
<g transform="translate(0.000000,41.000000) scale(0.100000,-0.100000)"
fill="#000000" stroke="none">
<path d="M294 347 c-27 -16 -60 -38 -73 -49 -25 -19 -25 -19 -3 -24 11 -4 22
-15 24 -25 3 -19 4 -19 16 1 12 19 11 22 -7 27 -12 3 -21 8 -21 12 1 12 113
71 136 71 37 0 36 -15 -4 -44 -47 -33 -36 -33 30 0 l52 26 53 -28 c53 -29 62
-39 42 -46 -10 -3 -13 -28 -10 -80 1 -24 22 -23 55 3 15 11 39 25 54 29 l27 8
-28 1 c-16 1 -40 -8 -54 -19 -34 -26 -46 -15 -13 12 24 21 24 21 3 15 -15 -3
-23 -1 -23 8 0 8 14 15 33 17 l32 3 -60 39 c-75 49 -108 62 -166 68 -40 5 -54
1 -95 -25z"/>
<path d="M615 183 c-29 -19 -57 -27 -108 -31 -52 -4 -65 -7 -52 -14 29 -17
124 1 177 34 49 30 72 32 49 4 -7 -8 -35 -29 -62 -47 l-49 -31 -80 12 c-55 9
-84 18 -97 32 -31 35 -89 58 -140 57 l-48 -2 45 -6 c51 -8 82 -22 126 -61 23
-20 48 -29 88 -34 31 -4 56 -12 56 -17 0 -13 -130 -10 -230 5 -84 13 -85 13
-118 -12 -39 -30 -36 -40 7 -18 26 14 44 15 118 6 122 -14 229 -13 245 3 7 6
34 22 58 35 62 31 125 86 116 100 -12 20 -58 12 -101 -15z"/>
</g>
</svg>
